<svg width="243" height="233" fill="none" xmlns="http://www.w3.org/2000/svg"><path d="M121.5 232.396c67.103 0 121.5-31.254 121.5-69.807 0-38.554-54.397-69.808-121.5-69.808C54.397 92.781 0 124.035 0 162.59c0 38.553 54.397 69.807 121.5 69.807z" fill="#F5F5F5"/><path d="M117.526 205.564l-66.538-38.43 76.055-43.907 66.547 38.42-76.064 43.917z" fill="#E0E0E0"/><path d="M185.423 153.46l-65.177 37.634-73.394-42.477 65.177-37.625 73.394 42.468z" fill="#FFE8D7"/><path opacity=".5" d="M185.423 153.46l-65.177 37.634-73.394-42.477 65.177-37.625 73.394 42.468z" fill="#000"/><path d="M112.029 59.984v51.013l-65.177 37.625V97.618l65.177-37.634z" fill="#FFE8D7"/><path opacity=".23" d="M112.029 59.984v51.013l-65.177 37.625V97.618l65.177-37.634z" fill="#000"/><path d="M120.246 140.085v51.012l-73.394-42.476V97.617l73.394 42.468z" fill="#FFE8D7"/><path opacity=".38" d="M120.246 140.085v51.012l-73.394-42.476V97.617l73.394 42.468z" fill="#000"/><path d="M185.426 102.452v51.012l-73.395-42.467V59.984l73.395 42.468z" fill="#FFE8D7"/><path opacity=".4" d="M185.426 102.452v51.012l-73.395-42.467V59.984l73.395 42.468z" fill="#000"/><path d="M185.427 153.465v-51.012l-65.177 37.634V191.1l65.177-37.635z" fill="#FFE8D7"/><path opacity=".23" d="M185.427 153.465v-51.012l-65.177 37.634V191.1l65.177-37.635z" fill="#000"/><path d="M112.031 59.983l.089-28.24 73.218 42.52.088 28.188-73.395-42.468z" fill="#FFE8D7"/><path opacity=".2" d="M112.031 59.983l.089-28.24 73.218 42.52.088 28.188-73.395-42.468z" fill="#000"/><path d="M120.25 140.082l6.115-24.707 64.585-37.29-5.523 24.363-65.177 37.634z" fill="#FFE8D7"/><path opacity=".3" d="M120.25 140.082l6.115-24.707 64.585-37.29-5.523 24.363-65.177 37.634z" fill="#000"/><path d="M46.85 97.618l-7.776-25.626 65.177-37.625 7.776 25.617L46.85 97.618z" fill="#FFE8D7"/><path opacity=".1" d="M46.85 97.618l-7.776-25.626 65.177-37.625 7.776 25.617L46.85 97.618z" fill="#000"/><path d="M46.852 97.618l-15.34-21.18 73.403 42.467 15.331 21.181-73.394-42.468z" fill="#FFE8D7"/><path opacity=".45" d="M46.852 97.618l-15.34-21.18 73.403 42.467 15.331 21.181-73.394-42.468z" fill="#000"/><g opacity=".7" fill="#fff"><path opacity=".7" d="M139.442 175.93a.404.404 0 01-.407-.397v-8.978a.414.414 0 01.407-.407.408.408 0 01.397.407v8.978a.4.4 0 01-.116.281.4.4 0 01-.281.116z"/><path opacity=".7" d="M138.264 169.662a.53.53 0 01-.159 0 .412.412 0 01-.212-.53l1.431-3.296 1.591 1.838a.414.414 0 01.069.282.407.407 0 01-.679.248l-.751-.884-.884 2.121a.409.409 0 01-.17.172.404.404 0 01-.236.049zm4.876 4.15a.405.405 0 01-.398-.406v-8.969c0-.106.042-.207.117-.281a.394.394 0 01.562 0 .393.393 0 01.116.281v8.96a.398.398 0 01-.112.29.415.415 0 01-.285.125z"/><path opacity=".7" d="M141.965 167.55a.53.53 0 01-.159 0 .39.39 0 01-.213-.222.392.392 0 01.009-.308l1.423-3.34 1.591 1.829a.408.408 0 010 .565.399.399 0 01-.566 0l-.751-.883-.884 2.12a.399.399 0 01-.183.199.4.4 0 01-.267.04z"/></g><g opacity=".7" fill="#fff"><path opacity=".7" d="M128.757 182.015a.895.895 0 01-.433-.106 1.06 1.06 0 01-.486-.963v-1.105a.408.408 0 01.407-.398.398.398 0 01.397.398v1.105c0 .159 0 .247.08.265.079.017.124 0 .256-.071a2.336 2.336 0 00.751-1.812v-4.594a.398.398 0 11.796 0v4.594a3.05 3.05 0 01-1.14 2.501 1.247 1.247 0 01-.628.186z"/><path opacity=".7" d="M124.543 178.313v-.689a11.384 11.384 0 015.116-8.837c1.449-.83 2.828-.954 3.888-.335a3.827 3.827 0 011.644 3.534v.23l-10.648 6.097zm7.52-9.49a4.146 4.146 0 00-1.997.618 10.615 10.615 0 00-4.684 7.467l8.987-5.196a2.985 2.985 0 00-1.246-2.651 2.099 2.099 0 00-1.06-.238z"/></g><path opacity=".7" d="M31.512 76.438l73.403 42.467 15.331 21.181-16.144-20.43-72.59-43.219zm153.915 26.015l-65.177 37.634V191.1l1.219-49.988 63.958-38.659z" fill="#fff"/><path d="M102.779 84.049c6.724-.973 12.865-5.302 16.789-10.746a25.638 25.638 0 003.976-8.43c.849-2.832.988-5.83.407-8.73-1.211-4.85-5.7-7.723-10.445-8.324a15.908 15.908 0 00-7.158.698 12.087 12.087 0 00-5.92 4.419 7.317 7.317 0 00-1.661 3.852 2.21 2.21 0 001.979 2.254 6.379 6.379 0 004.038-1.025 12.81 12.81 0 003.774-3.217 27.02 27.02 0 004.895-9.278 18.646 18.646 0 000-8.836 16.309 16.309 0 00-4.003-8.139 14.81 14.81 0 00-8.607-3.79 20.959 20.959 0 00-9.49.883 10.154 10.154 0 00-3.65 1.997c-.76.707-1.625 1.873-1.316 3.022.31 1.149 1.988 1.661 3.128 1.511a8.2 8.2 0 004.418-2.395 18.867 18.867 0 003.332-4.418 7.758 7.758 0 00.998-3.835c-.115-5.602-6.309-9.225-11.16-10.25a14.36 14.36 0 00-3.985-.265c-.451 0-.177.742.185.716 2.61-.119 5.205.467 7.511 1.696a12.565 12.565 0 015.488 4.887 6.725 6.725 0 01-.213 6.84 18.143 18.143 0 01-3.198 4.082c-1.052.954-2.651 2.058-4.127 1.952a1.298 1.298 0 01-1.166-.733 1.881 1.881 0 01.521-1.608 7.397 7.397 0 012.819-1.891 18.556 18.556 0 018.386-1.379c2.951.054 5.822.976 8.253 2.651a12.984 12.984 0 014.294 6.813 19.998 19.998 0 01.778 8.395 21.52 21.52 0 01-3.208 7.952c-1.635 2.704-3.685 5.302-6.76 6.363-.76.274-2.35.671-2.651-.433-.3-1.105.566-2.466 1.123-3.323a11.239 11.239 0 015.142-4.339 14.203 14.203 0 016.442-.972c4.162.31 8.386 2.483 9.835 6.619.727 2.471.806 5.088.23 7.6a24.419 24.419 0 01-2.925 7.81 27.908 27.908 0 01-13.157 11.479c-1.308.566-2.651 1.043-4.021 1.484-.141.053-.079.407.08.38z" fill="#E0E0E0"/><path d="M74.685 7.33c-3.535-.257-8.403 2.527-6.671 4.559 1.732 2.032 6.326-1.255 6.326-1.255s-.433 4.109 1.07 4.577c1.502.469 3.534-3.455 2.032-5.964a4.621 4.621 0 004.418-.566c2.14-1.573-.123-3.057-3.137-2.791 0 0 2.156-7.07-2.2-5.717-2.182.663-2.951 3.216-1.838 7.157z" fill="#FF8329"/><path opacity=".65" d="M74.685 7.33c-3.535-.257-8.403 2.527-6.671 4.559 1.732 2.032 6.326-1.255 6.326-1.255s-.433 4.109 1.07 4.577c1.502.469 3.534-3.455 2.032-5.964a4.621 4.621 0 004.418-.566c2.14-1.573-.123-3.057-3.137-2.791 0 0 2.156-7.07-2.2-5.717-2.182.663-2.951 3.216-1.838 7.157z" fill="#fff"/><path d="M77.972 8.828a7.077 7.077 0 00-.618-.54c-.31-.238-.637-.468-.946-.697a8.055 8.055 0 00-.945-.592c-.19-.105-.384-.2-.584-.283a1.617 1.617 0 00-.883-.142.442.442 0 00-.354.69c.243.263.547.463.884.583l.477.256c.327.195.619.415.884.636.265.221.618.433.883.654.456.37.966.668 1.511.884a.168.168 0 00.16 0c.45-.354-.213-1.193-.469-1.45z" fill="#455A64"/></svg>