<svg width="32" height="32" fill="none" xmlns="http://www.w3.org/2000/svg"><path opacity=".4" d="M16 29.346c7.364 0 13.333-5.97 13.333-13.333C29.333 8.649 23.363 2.68 16 2.68c-7.364 0-13.334 5.97-13.334 13.333 0 7.364 5.97 13.333 13.334 13.333z" fill="#AFAFAF"/><path d="M16 9.25c-2.76 0-5 2.24-5 5 0 2.707 2.12 4.907 4.933 4.987h.24A4.99 4.99 0 0021 14.25c0-2.76-2.24-5-5-5zm9.04 16.564A13.3 13.3 0 0116 29.347a13.3 13.3 0 01-9.04-3.533c.32-1.214 1.187-2.32 2.453-3.174 3.64-2.426 9.56-2.426 13.174 0 1.28.854 2.133 1.96 2.453 3.174z" fill="#AFAFAF"/></svg>