<svg version="1.0" xmlns="http://www.w3.org/2000/svg" width="232" height="232" viewBox="0 0 174 174"><path d="M83.8 22.7c-.6 2.4 1 8.3 2.2 8.3.9 0 1.4-1.7 1.3-4.8-.1-.6.3-1.2.8-1.2 1.1 0 .7-2.3-.6-3.2-1.7-1.3-3.2-.9-3.7.9zm18.4 0c-1 1.9-1.3 7.2-.5 8.5.2.4 1 .2 1.7-.5.8-.6 1.2-1.5.9-2-.2-.4 0-.7.5-.7s1.2-1.1 1.5-2.5c.6-3.3-2.7-5.5-4.1-2.8zm-33 .2c-.6.3-1 1.3-.9 2.1.5 3 3 8 4 8 .6 0 .7-.3.4-.7-.4-.3 0-1.4.9-2.4 1-1.1 1.2-1.9.5-2.4-.6-.3-1.1-1.4-1.1-2.5 0-2-2.1-3.2-3.8-2.1zm-14.8 4.3c-.9 1.4.5 5.7 2.5 7.9 1.6 1.7 1.9 1.8 2.4.5.3-.8.4-2.5.1-3.8-.3-1.3-.6-2.8-.6-3.5-.2-1.5-3.6-2.4-4.4-1.1zm65 1.1c-.9 2.7-1.3 7.7-.6 7.7 1.4 0 5.2-5.4 4.8-6.7-.3-.8-.1-1.1.4-.8.6.3 1 .1 1-.4 0-.6-.3-1.1-.7-1.2-.5 0-1.6-.2-2.5-.4-1.1-.2-2 .5-2.4 1.8zM41 35.5c0 1.4.9 3.6 2 4.7 2.1 2.3 5 3.3 5 1.7 0-.5-.5-.9-1.1-.9-.5 0-.7-.4-.4-1 .7-1.1-1.2-5.1-2.9-6.2-1.9-1.3-2.6-.9-2.6 1.7zm43.1-2c-.1.6-1.7 1-3.6 1-1.9-.1-3.5.2-3.5.7 0 .5-.6.8-1.2.6-2-.3-8.5 1.1-11.4 2.7-1.5.8-3.1 1.2-3.6.9-.4-.3-.8-.1-.8.4 0 .9-2.6 2-4.1 1.8-.4-.1-1.6.8-2.8 1.8-1.2 1.1-2.1 1.5-2.1 1s-.4-.4-.8.1c-.4.6-2 1.9-3.7 2.9C41.3 50.8 32 59.6 32 61.2c0 .5-.4.7-.9.3-.5-.3-1.2.3-1.5 1.3-.4 1-1.4 2.7-2.4 3.8-.9 1-2.6 3.7-3.7 5.9S21.3 76.7 21 77c-1.2 1-6.8 17-5.8 16.4.6-.4.5.2-.1 1.4-.6 1.1-1.1 3.2-1.1 4.6 0 1.3-.6 2.7-1.2 2.9-.8.3-.8.6-.2.6.7.1.9 1.6.5 4.3-.4 2.4-.6 4.9-.5 5.5.1.7.2 2.9.3 4.8.2 5.8 1.7 3.9 1.8-2.3.1-5.1.8-11.7 1.3-11.7.1 0 .4-1.4.6-3 .3-1.7.9-3.4 1.5-4 .5-.5.9-1.9.9-3.2 0-1.3.5-2.3 1.1-2.3.6 0 .9-.7.5-1.5-.3-.8-.2-1.5.3-1.5.8 0 2.4-3.8 2.2-5.3-.1-.4.3-.7.9-.7.5 0 1-.5 1-1 0-.6.9-2 2-3.2 1-1.2 1.7-2.4 1.5-2.8-.3-.5.2-1.1 1.1-1.4.8-.3 1.2-1.1.9-1.6-.4-.6-.3-.9.2-.8 1.1.3 10.3-9 10.3-10.4 0-.7.5-.6 1.4.1 1.6 1.4 1.2 2-5.3 7.3-1.8 1.6-2.9 2.8-2.5 2.8.4 0-.5 1.1-2 2.5-1.4 1.3-2.6 3.2-2.6 4.1 0 1-.3 1.4-.7 1.1-.7-.8-5.5 7.9-5.6 10 0 .7-.4 1.3-.7 1.3-.7 0-2.1 5-1.9 6.6 0 .4-.4 1-1 1.4-.6.3-1.2 2.5-1.4 4.8-.1 2.3-.6 4.2-1 4.2-.5 0-.6.4-.2.9.3.5-.2 1.6-1 2.4-1.6 1.7-2 3.2-.6 2.3.5-.4.7.8.4 2.6-.3 1.8-.6 3.8-.7 4.4-.1.7-.8 1.9-1.5 2.8-.8.9-1.1 1.9-.7 2.3.3.3.6.1.6-.5 0-.7.5-1.2 1-1.2.6 0 1 .7 1 1.4 0 1.6 5.9 6.6 7.8 6.6.6 0 1.2-.5 1.4-1.1.2-.5 1.2-1.1 2.3-1.3 1.1-.2 2.3-1.4 2.6-2.7.4-1.3.7-2 .8-1.5.1.5.7.3 1.5-.3 1.2-1 1.4-.9 1.2.5-.1.9-.9 2.2-1.8 2.8-2.7 2-3.7 6.9-2.1 10 .9 1.7 2 2.5 2.8 2.2.8-.3 1.7 0 2.1.6.4.7.3.8-.4.4-2-1.2-1.9 7.8.1 10.3.9 1.2.9 1.3 0 .7-.7-.4-1.3-.2-1.3.3 0 .6.9 1.1 2.1 1.1 1.3 0 1.8-.4 1.3-1.2-.4-.7.2-.5 1.3.4 2.5 2.3 2.9 2.3 3.7-.4.6-2.2.7-2.2 2-.5.8 1.1 1.7 1.4 2 .8.4-.5.2-1.2-.4-1.6-1.8-1.1-.1-2.3 3.1-2.1 1.6.1 3.2-.1 3.5-.6.3-.4 1.4-.3 2.5.2 1.1.6 2.4.8 2.9.5.6-.4 1.3.1 1.6 1 .5 1.2.9 1.3 1.4.5.4-.7 2.3-1.4 4.1-1.6 1.9-.2 4-.6 4.7-.9.8-.3 1 0 .6.7-.5.7-.3.8.7.3 2.3-1.5 5.3-1.3 6.6.4.9 1.1 1.5 1.3 2 .5 1-1.4 5.4-2.9 5.2-1.7-.3 2 .2 2.5 1.6 1.3.8-.7 1.5-.8 1.5-.3s.7 1 1.5 1c.9 0 1.4-.6 1.1-1.2-.2-.6.2-1.2 1-1.2s1.3.6 1 1.4c-.4 1.1-.1 1.1 1.4.3 1.1-.6 2-.8 2-.4 0 .3.7.1 1.5-.6 1-.8 1.5-.9 1.5-.2 0 .8.9.8 3 .1 1.6-.6 6.2-.9 10.1-.7 5.3.4 7.2.1 7.6-.9.3-.7.9-1.3 1.5-1.3.5 0 .6.5.3 1-.3.6 1.1 0 3.1-1.2 2.2-1.3 3.4-1.6 2.9-.9-.6 1.1-.3 1.3 1.3.9 1.2-.4 2.5-.2 2.8.3.3.6 1.5.4 2.9-.5 1.7-1.1 2.5-1.2 3.4-.3.8.8 1.1.8 1.1 0 0-.6 1.1-1 2.5-.9 1.3.2 2.2 0 2-.5-.3-.4.3-.8 1.2-.8 1.7 0 5.5-.7 6.1-1.1.1-.2.7-.3 1.3-.4.5 0 2.1-1.2 3.5-2.5 1.9-1.9 2.2-2.6 1.2-3.2-.7-.5-.8-.9-.2-.9 1.2 0 1.2-11 0-15.2-.5-1.6-.5-3.6-.1-4.5 1.2-2.8 1.7-4.6 1.9-7.4.2-1.4.6-3.1 1-3.7.5-.8.1-1-1-.5-1.2.4-1.5.3-1-.5s-.2-1.2-1.9-1.2c-2.1 0-2.4-.3-1.7-1.8.7-1.4.9-13.2.2-14-.1-.1-.3-.6-.4-1.1 0-.5-.4-1.2-.8-1.6-.4-.4-.4-1.3-.1-2.1.3-.8 0-1.4-.7-1.4s-1-.6-.7-1.4c.3-.8-.2-2.2-1.1-3.3-2.6-2.9-5.3-8.5-4.6-9.2.4-.3.9-.1 1.1.6.2.6 1.3 2.1 2.4 3.4 1 1.2 1.9 2.8 1.9 3.6 0 .7.4 1.3.9 1.3 1.1 0 2.6 3.9 2.2 5.9-.1.7.2 1 .8.6.7-.4 1.1.4 1.1 1.9 0 1.4.4 2.6.8 2.6.5 0 .9.6.9 1.2 0 .7.4 2.9.8 4.8s.8 4.5.8 5.7c.1 1.3.6 2.3 1.2 2.3.8 0 1.1-1.9.9-5.3-.1-2.8-.3-5.3-.4-5.5-.1-.1-.3-1.2-.3-2.5-.1-1.2-.6-2.5-1.1-2.9-.7-.5-.5-.8.4-.8 1 0 1.1-.3.3-.8-.6-.4-1.3-2.3-1.7-4.2-.3-1.9-1-3.6-1.5-3.8-.6-.2-1.1-1-1.1-1.8 0-2.3-3.6-8.7-6.8-12.2-1.7-1.8-2.8-3.2-2.6-3.2.7 0-4.3-4.6-8.2-7.4-2.1-1.7-4.1-3.3-4.4-3.6-.9-1.1-7.7-4-9.3-4-.9 0-1.7-.5-1.9-1-.2-.6-1.3-1.2-2.6-1.3-1.2 0-2.2-.5-2.2-1 0-.4-.4-.6-.9-.2-.5.3-1.3 0-1.7-.6-.4-.8-.9-.7-1.5.2-.6.9-.9 1-.9.2 0-.6-.8-1.2-1.7-1.2-2.6-.1-5.7-.6-6.8-1.2-.6-.3-2.7-.5-4.7-.4-2.1 0-3.8-.2-3.8-.5 0-.7-7.6-.4-8.8.4-.6.3-1.3 0-1.5-.6-.3-.7-.6-.8-.6-.3zm13.3 9.6c-.2.3 2 .7 4.8.8 2.8.1 5.8.7 6.7 1.4 1.2 1 1.3.9.6-.3-.8-1.3-.6-1.3.8-.1.9.7 2.4 1 3.3.7 1.1-.4 1.5-.2 1.1.7-.4 1 .3 1.2 2.4.9 1.7-.3 2.9 0 2.9.7 0 .6.3 1 .8 1 .4-.1 1 0 1.5.1 1.2.4 2.7.7 3.8.9.6 0 .9.8.6 1.5-.4 1.1-.1 1.3 1 .9.9-.4 2.1 0 2.7.9 1.1 1.5 1.7 1.8 3.5 1.8.4 0 3 2 5.7 4.5 3.7 3.5 4.5 4.8 3.6 5.7-.9.9-1.2.8-1.2-.5 0-.9-.7-1.7-1.6-1.7-.8 0-1.3-.4-1-.9.3-.4-.6-1.3-1.9-1.9-1.4-.7-2.5-1.5-2.5-2s-1.6-1.4-3.5-2.2c-1.9-.8-3.5-1.8-3.5-2.4 0-.5-.3-.6-.6-.3-.4.4-1.9-.2-3.4-1.3-1.6-1.1-3.3-2-3.9-2-.6 0-1.1-.6-1.1-1.3 0-.9-.2-.9-.8 0-.6 1-1.4.9-3.6-.2-1.6-.8-3.9-1.5-5.2-1.5-1.3 0-2.4-.6-2.4-1.3 0-.8-.4-.7-1 .3-.5.8-1 1-1 .5 0-.6-2.9-1-6.8-1-3.7 0-7.3-.4-7.9-.9-.8-.5-1.3-.5-1.3.1 0 .5-1.7.9-3.7.9-7.1.2-12.8 1.3-19.8 4-1.1.4-2.2.8-2.5.9-.3.1-1.6.6-3 1.2s-2.9 1.2-3.5 1.4c-.5.2-1.7.9-2.5 1.6-.8.7-1.9 1.4-2.5 1.6-.5.1-1.9 1.2-3.2 2.4-1.2 1.3-3 2.3-4 2.3-1.4-.1-1-.8 1.7-3 1.9-1.7 3.8-3 4.3-3s1.5-.7 2.3-1.5c.9-.8 2.4-1.5 3.5-1.5s1.7-.5 1.4-1c-.3-.6.3-1 1.4-1 1.2 0 2.1-.4 2.1-1 0-.5.7-.6 1.7-.3 1 .4 1.4.2 1-.4-.4-.7 0-1 1-.8 1 .1 2.3 0 2.8-.4.6-.3 1.3-.6 1.8-.7.4-.1.9-.3 1.2-.4.3-.1 1-.4 1.5-.5.6-.1 1.1-.3 1.3-.5.4-.3 5.1-.9 9-1.1 2-.1 3.9-.4 4.1-.8.2-.3 2.9-.6 5.9-.6 3 0 5.3.3 5.1.6zM41 149.4c0 .3-.4.8-1 1.1-.5.3-1 .1-1-.4 0-.6.5-1.1 1-1.1.6 0 1 .2 1 .4zm94.8-114.2c-.7 1.3-1.1 2.6-1 3 .1.5-.2.8-.8.8-.5 0-1 .8-1 1.8s.6 1.9 1.3 1.9c1.3 0 6.3-4.7 5-4.7-.4 0-.2-.4.6-.9 1.2-.8 1.2-1.2-.2-2.5-2-2.1-2.4-2-3.9.6zM28.9 43c-.1.5-.2 1.6-.3 2.2-.2 1.5 4.4 5.9 5.5 5.2.4-.2 1 .2 1.3.8.3.7.3 0 0-1.7-.3-1.6-1-3.3-1.6-3.6-.5-.3-1-1-1-1.5s-.4-.8-.9-.7c-.5.2-.9-.2-.9-.7 0-.6-.4-1-1-1-.5 0-1.1.4-1.1 1zM152 46.1c0 .6-.3.8-.7.6-.5-.3-1.8 1.1-3.1 3.1l-2.3 3.5 3.1-.6c1.7-.4 4.3-1.8 5.8-3.3 1.5-1.5 2.1-2.3 1.5-2-.7.4-1.3.3-1.3-.2 0-.6-.7-1.2-1.5-1.6-.8-.3-1.5-.1-1.5.5zM19 55c0 .6-.4.9-.9.6-.5-.4-.4.5.2 1.9 1.1 2.1 2.9 3.1 7.5 4.1 1.8.3 1.5-.9-.7-3.3-1.1-1.2-1.7-2.4-1.4-2.7.4-.3.1-.6-.5-.6-.5 0-1.7-.3-2.6-.6-.9-.3-1.6-.1-1.6.6zm140.5 9c-2.1 1.6-3.6 3.1-3.4 3.1 1.7.6 6.9.4 6.9-.3 0-.4.7-.8 1.6-.8 1 0 1.4-.7 1.2-2.2-.5-3.2-2-3.2-6.3.2zM10.2 68c-1.5 2.5-1.5 3 .2 3 .8 0 1.6.4 1.8 1 .2.5 1.8 1.2 3.6 1.6 4 .8 4.5-1.6.7-3.6-1.3-.7-2.1-1.8-1.8-2.3.4-.6 0-.8-1-.4-.9.3-1.7.2-1.9-.4-.2-.5-.9 0-1.6 1.1zm156.1 11.2c-1.3.6-2.3 1.5-2.3 2 0 .4-.8.8-1.7.9-1.1 0-1.3.3-.5.6.6.2.9 1 .5 1.6-.4.7.1.6 1-.2 1.3-1 1.7-1 1.7-.1s.4.9 1.3.3c.6-.6 2-.9 2.9-.8 2.3.4 3-2.1 1.2-4-.9-.8-1.6-1.5-1.7-1.4-.1 0-1.2.5-2.4 1.1zM5.4 81.9c-1.3.9-1.6 3.1-.3 3.1.5 0 .8.3.5.8-.2.4 1.8.8 4.6 1 5 .2 5.1.2 3.4-1.7-2.1-2.3-6.9-4.2-8.2-3.2zM1.7 97.1c-3.1 1.8-.8 3.9 4.4 3.9 3.9 0 4.9-.3 4.9-1.7 0-.9-.3-1.3-.7-1-.3.4-1.2.2-1.9-.3-1.8-1.6-4.8-1.9-6.7-.9zm167 0c-.9.5-2.1.8-2.5.5-.4-.3-1.3.4-2 1.5-1.1 1.6-.9 1.9.8 1.9 1.1 0 2 .5 2 1.1 0 .6.6.7 1.2.2.7-.4 2.2-.7 3.3-.8 2.8 0 3.3-3.5.5-3.5-1.2 0-1.8-.5-1.5-1 .8-1.2.5-1.2-1.8.1zM1.3 111.9c-2.5 1.7.6 5.8 3.4 4.6 1-.5 2.2-.7 2.6-.6.4 0 1-.6 1.3-1.4.3-.8 1-1.2 1.5-.9.5.3.9 0 .9-.5 0-.6-1-1.1-2.2-1.2-1.3 0-3.3-.2-4.5-.3-1.2-.1-2.6 0-3 .3z"/></svg>